# xmcd CD database file
#
# Track frame offsets:
#	150
#	15382
#	25750
#	43056
#	63410
#	80152
#	99493
#	117744
#	140481
#	165861
#	180794
#
# Disc length: 2647 seconds
#
# Revision: 0
# Processed by: cddbd v1.5.2PL0 Copyright (c) Steve Scherf et al.
# Submitted via: CDex 1.70beta2
#
DISCID=840a550b
DTITLE=Jakubowski,Tadeusz - Souledge
DYEAR=2006
DGENRE=Jazz
TTITLE0=Night Of November
TTITLE1=Motion Of Change
TTITLE2=Soul Brothers
TTITLE3=Just His Smile
TTITLE4=Generation (W. Birgid Jansen)
TTITLE5=What Happened To U
TTITLE6=Go West
TTITLE7=Ewa´s Dream
TTITLE8=Sand Of Moon
TTITLE9=New Message
TTITLE10=Heaven´s Game
EXTD=YEAR: 2006
EXTT0=
EXTT1=
EXTT2=
EXTT3=
EXTT4=
EXTT5=
EXTT6=
EXTT7=
EXTT8=
EXTT9=
EXTT10=
PLAYORDER=
